<svg width="16.000000" height="11.199997" viewBox="0 0 16 11.2" fill="none" xmlns="http://www.w3.org/2000/svg" xmlns:xlink="http://www.w3.org/1999/xlink">
	<desc>
			Created with Pixso.
	</desc>
	<defs/>
	<g opacity="0.400000">
		<path id="Vector" d="M2.4 4.8C3.28 4.8 4 4.08 4 3.2C4 2.31 3.28 1.6 2.4 1.6C1.51 1.6 0.79 2.31 0.79 3.2C0.79 4.08 1.51 4.8 2.4 4.8ZM13.6 4.8C14.48 4.8 15.2 4.08 15.2 3.2C15.2 2.31 14.48 1.6 13.6 1.6C12.71 1.6 12 2.31 12 3.2C12 4.08 12.71 4.8 13.6 4.8ZM14.4 5.6L12.8 5.6C12.36 5.6 11.96 5.77 11.67 6.06C12.68 6.61 13.39 7.61 13.55 8.8L15.2 8.8C15.64 8.8 16 8.44 16 8L16 7.2C16 6.31 15.28 5.6 14.4 5.6ZM8 5.6C9.54 5.6 10.8 4.34 10.8 2.8C10.8 1.25 9.54 0 8 0C6.45 0 5.2 1.25 5.2 2.8C5.2 4.34 6.45 5.6 8 5.6ZM9.91 6.4L9.71 6.4C9.19 6.65 8.61 6.8 8 6.8C7.38 6.8 6.81 6.65 6.28 6.4L6.08 6.4C4.48 6.4 3.2 7.69 3.2 9.28L3.2 10C3.2 10.66 3.73 11.2 4.4 11.2L11.6 11.2C12.26 11.2 12.8 10.66 12.8 10L12.8 9.28C12.8 7.69 11.51 6.4 9.91 6.4ZM4.32 6.06C4.03 5.77 3.64 5.6 3.2 5.6L1.59 5.6C0.71 5.6 0 6.31 0 7.2L0 8C0 8.44 0.35 8.8 0.79 8.8L2.44 8.8C2.6 7.61 3.32 6.61 4.32 6.06Z" fill="#9FA2B4" fill-opacity="1.000000" fill-rule="nonzero"/>
	</g>
</svg>
