<svg width="11.000000" height="16.000336" viewBox="0 0 11 16.0003" fill="none" xmlns="http://www.w3.org/2000/svg" xmlns:xlink="http://www.w3.org/1999/xlink">
	<desc>
			Created with Pixso.
	</desc>
	<defs/>
	<g opacity="0.400000">
		<path id="Vector" d="M3 14.19C3 14.39 3.06 14.58 3.16 14.75L3.7 15.55C3.79 15.69 3.91 15.8 4.06 15.88C4.2 15.95 4.37 16 4.53 16L6.46 16C6.62 16 6.79 15.95 6.93 15.88C7.08 15.8 7.2 15.69 7.29 15.55L7.83 14.75C7.93 14.58 7.99 14.39 7.99 14.19L7.99 13L3 13L3 14.19ZM0 5.5C0 6.88 0.51 8.15 1.36 9.11C1.87 9.7 2.68 10.93 2.99 11.97C2.99 11.98 2.99 11.99 2.99 12L8 12C8 11.99 8 11.98 8 11.97C8.31 10.93 9.12 9.7 9.63 9.11C10.48 8.15 11 6.88 11 5.5C11 2.45 8.52 -0.01 5.48 3.05e-5C2.29 0 0 2.59 0 5.5ZM5.5 3C4.12 3 3 4.12 3 5.5C3 5.77 2.77 6 2.5 6C2.22 6 2 5.77 2 5.5C2 3.57 3.57 2 5.5 2C5.77 2 6 2.22 6 2.5C6 2.77 5.77 3 5.5 3Z" fill="#9FA2B4" fill-opacity="1.000000" fill-rule="nonzero"/>
	</g>
</svg>
