<svg width="16.000000" height="10.666672" viewBox="0 0 16 10.6667" fill="none" xmlns="http://www.w3.org/2000/svg" xmlns:xlink="http://www.w3.org/1999/xlink">
	<desc>
			Created with Pixso.
	</desc>
	<defs/>
	<g opacity="0.400000">
		<path id="Vector" d="M3.55 2.66L12.44 2.66L12.44 8L3.55 8L3.55 2.66ZM14.66 5.33C14.66 6.06 15.26 6.66 16 6.66L16 9.33C16 10.06 15.4 10.66 14.66 10.66L1.33 10.66C0.59 10.66 0 10.06 0 9.33L0 6.66C0.73 6.66 1.33 6.06 1.33 5.33C1.33 4.59 0.73 4 0 4L0 1.33C0 0.59 0.59 0 1.33 0L14.66 0C15.4 0 16 0.59 16 1.33L16 4C15.26 4 14.66 4.59 14.66 5.33ZM13.33 2.44C13.33 2.07 13.03 1.77 12.66 1.77L3.33 1.77C2.96 1.77 2.66 2.07 2.66 2.44L2.66 8.22C2.66 8.59 2.96 8.88 3.33 8.88L12.66 8.88C13.03 8.88 13.33 8.59 13.33 8.22L13.33 2.44Z" fill="#9FA2B4" fill-opacity="1.000000" fill-rule="nonzero"/>
	</g>
</svg>
