<svg width="14.838135" height="15.500061" viewBox="0 0 14.8381 15.5001" fill="none" xmlns="http://www.w3.org/2000/svg" xmlns:xlink="http://www.w3.org/1999/xlink">
	<desc>
			Created with Pixso.
	</desc>
	<defs/>
	<g opacity="0.400000">
		<path id="Vector" d="M14.64 9.61L13.31 8.84C13.45 8.11 13.45 7.37 13.31 6.65L14.64 5.88C14.8 5.79 14.87 5.61 14.82 5.44C14.47 4.33 13.88 3.32 13.11 2.48C12.99 2.35 12.79 2.32 12.64 2.41L11.31 3.18C10.75 2.7 10.11 2.33 9.41 2.08L9.41 0.55C9.41 0.37 9.29 0.22 9.12 0.18C7.97 -0.07 6.8 -0.06 5.71 0.18C5.53 0.22 5.41 0.37 5.41 0.55L5.41 2.09C4.72 2.33 4.07 2.7 3.51 3.18L2.18 2.41C2.03 2.33 1.84 2.35 1.72 2.49C0.95 3.32 0.36 4.33 0.01 5.44C-0.04 5.61 0.03 5.79 0.18 5.88L1.52 6.65C1.38 7.37 1.38 8.12 1.52 8.84L0.18 9.61C0.03 9.7 -0.04 9.88 0.01 10.05C0.36 11.16 0.95 12.17 1.72 13C1.84 13.13 2.03 13.16 2.18 13.08L3.52 12.31C4.07 12.79 4.72 13.16 5.42 13.4L5.42 14.94C5.42 15.12 5.54 15.27 5.71 15.31C6.86 15.56 8.03 15.55 9.12 15.31C9.29 15.27 9.42 15.12 9.42 14.94L9.42 13.4C10.11 13.16 10.75 12.79 11.32 12.31L12.65 13.08C12.8 13.16 12.99 13.14 13.11 13C13.88 12.17 14.47 11.16 14.82 10.05C14.87 9.88 14.8 9.7 14.64 9.61ZM7.41 10.24C6.03 10.24 4.91 9.12 4.91 7.74C4.91 6.36 6.03 5.24 7.41 5.24C8.79 5.24 9.91 6.36 9.91 7.74C9.91 9.12 8.79 10.24 7.41 10.24Z" fill="#9FA2B4" fill-opacity="1.000000" fill-rule="nonzero"/>
	</g>
</svg>
