<svg width="17.500000" height="18.500000" viewBox="0 0 17.5 18.5" fill="none" xmlns="http://www.w3.org/2000/svg" xmlns:xlink="http://www.w3.org/1999/xlink">
	<desc>
			Created with Pixso.
	</desc>
	<defs/>
	<path id="Vector" d="M8 18.5C9.1 18.5 9.99 17.6 9.99 16.5L6 16.5C6 17.6 6.89 18.5 8 18.5ZM14.73 13.82C14.12 13.17 12.99 12.19 12.99 9C12.99 6.57 11.29 4.62 8.99 4.15L8.99 3.5C8.99 2.94 8.55 2.5 8 2.5C7.44 2.5 7 2.94 7 3.5L7 4.15C4.7 4.62 3 6.57 3 9C3 12.19 1.87 13.17 1.26 13.82C1.08 14.02 0.99 14.26 1 14.5C1 15.01 1.4 15.5 2 15.5L13.99 15.5C14.59 15.5 14.99 15.01 15 14.5C15 14.26 14.91 14.02 14.73 13.82Z" fill="#C5C7CD" fill-opacity="1.000000" fill-rule="nonzero"/>
	<circle id="new" cx="13.000000" cy="4.500000" r="3.000000" fill="#3751FF" fill-opacity="1.000000"/>
	<circle id="new" cx="13.000000" cy="4.500000" r="3.750000" stroke="#F7F8FC" stroke-opacity="1.000000" stroke-width="1.500000"/>
</svg>
